<svg width="23" height="23" viewBox="0 0 23 23" fill="none" xmlns="http://www.w3.org/2000/svg">
<path d="M21.7222 0H1.27778C0.572081 0 0 0.572081 0 1.27778V21.7222C0 22.4279 0.572081 23 1.27778 23H21.7222C22.4279 23 23 22.4279 23 21.7222V1.27778C23 0.572081 22.4279 0 21.7222 0Z" fill="#1B2D3D"/>
<path fill-rule="evenodd" clip-rule="evenodd" d="M4.19673 8.89589H7.27074V18.7865H4.19673V8.89589ZM5.73421 3.97932C6.71714 3.97932 7.51576 4.77793 7.51576 5.76087C7.51576 6.74475 6.71714 7.54368 5.73421 7.54368C5.49733 7.54817 5.26194 7.50539 5.04179 7.41784C4.82164 7.33029 4.62115 7.19973 4.45204 7.0338C4.28293 6.86786 4.1486 6.66988 4.0569 6.45142C3.9652 6.23297 3.91797 5.99843 3.91797 5.7615C3.91797 5.52458 3.9652 5.29004 4.0569 5.07158C4.1486 4.85313 4.28293 4.65515 4.45204 4.48921C4.62115 4.32328 4.82164 4.19272 5.04179 4.10517C5.26194 4.01762 5.49733 3.97484 5.73421 3.97932ZM9.19891 8.89557H12.1474V10.2471H12.1883C12.5988 9.46962 13.6015 8.64992 15.0968 8.64992C18.2095 8.64992 18.7845 10.6985 18.7845 13.3617V18.7865H15.7124V13.9767C15.7124 12.8299 15.6913 11.3543 14.1152 11.3543C12.5157 11.3543 12.27 12.6037 12.27 13.8939V18.7865H9.19859V8.89589L9.19891 8.89557Z" fill="white"/>
</svg>
