<svg width="351" height="275" viewBox="0 0 351 275" fill="none" xmlns="http://www.w3.org/2000/svg">
<rect x="-107.5" y="2.5" width="270" height="270" stroke="white" stroke-width="5"/>
<path d="M28.9961 148.076H-25.252V215H-31.0527V58.5938H18.791C34.4746 58.5938 46.9355 62.64 56.1738 70.7324C65.4837 78.8249 70.1387 89.8177 70.1387 103.711C70.1387 114.382 66.8086 123.727 60.1484 131.748C53.5599 139.697 45.1452 144.639 34.9043 146.572L76.6914 213.496V215H70.5684L28.9961 148.076ZM-25.252 142.275H24.0547C36.0859 142.275 45.7897 138.623 53.166 131.318C60.6139 124.014 64.3379 114.811 64.3379 103.711C64.3379 91.5365 60.2201 81.9401 51.9844 74.9219C43.8203 67.9036 32.6126 64.3945 18.3613 64.3945H-25.252V142.275ZM224.182 148.506C224.182 162.041 221.747 174.036 216.877 184.492C212.079 194.876 205.204 202.933 196.252 208.662C187.3 214.32 176.988 217.148 165.314 217.148C147.697 217.148 133.446 210.882 122.561 198.35C111.675 185.817 106.232 168.916 106.232 147.646V125.088C106.232 111.624 108.632 99.6647 113.43 89.209C118.299 78.7533 125.21 70.6966 134.162 65.0391C143.186 59.3099 153.498 56.4453 165.1 56.4453C176.773 56.4453 187.085 59.3099 196.037 65.0391C205.061 70.6966 212.007 78.7891 216.877 89.3164C221.747 99.7721 224.182 111.696 224.182 125.088V148.506ZM218.381 124.873C218.381 105.967 213.583 90.8203 203.986 79.4336C194.39 67.9753 181.428 62.2461 165.1 62.2461C148.986 62.2461 136.132 67.9395 126.535 79.3262C116.939 90.6413 112.141 106.074 112.141 125.625V148.506C112.141 160.967 114.289 171.995 118.586 181.592C122.954 191.117 129.149 198.457 137.17 203.613C145.191 208.77 154.572 211.348 165.314 211.348C181.643 211.348 194.569 205.654 204.094 194.268C213.618 182.881 218.381 167.34 218.381 147.646V124.873Z" fill="white"/>
</svg>
