<svg width="91" height="79" viewBox="0 0 91 79" fill="none" xmlns="http://www.w3.org/2000/svg">
<path d="M87.9667 6H3.03333C1.35807 6 0 6.22386 0 6.5C0 6.77614 1.35807 7 3.03333 7H87.9667C89.6419 7 91 6.77614 91 6.5C91 6.22386 89.6419 6 87.9667 6Z" fill="#757373"/>
<path d="M87.9667 35.55H3.03333C1.35807 35.55 0 35.7738 0 36.05C0 36.3261 1.35807 36.55 3.03333 36.55H87.9667C89.6419 36.55 91 36.3261 91 36.05C91 35.7738 89.6419 35.55 87.9667 35.55Z" fill="#757373"/>
<path d="M87.9667 65.1H3.03333C1.35807 65.1 0 65.3238 0 65.6C0 65.8761 1.35807 66.1 3.03333 66.1H87.9667C89.6419 66.1 91 65.8761 91 65.6C91 65.3238 89.6419 65.1 87.9667 65.1Z" fill="#757373"/>
</svg>
