<svg width="120" height="98" viewBox="0 0 120 98" fill="none" xmlns="http://www.w3.org/2000/svg">
<rect x="2.5" y="2.5" width="93" height="93" stroke="#FB0000" stroke-width="5"/>
<path d="M50.7148 53.293H38.6914V74H31.9062V22.8125H48.8516C54.6172 22.8125 59.0469 24.125 62.1406 26.75C65.2578 29.375 66.8164 33.1953 66.8164 38.2109C66.8164 41.3984 65.9492 44.1758 64.2148 46.543C62.5039 48.9102 60.1133 50.6797 57.043 51.8516L69.0664 73.5781V74H61.8242L50.7148 53.293ZM38.6914 47.7734H49.0625C52.4141 47.7734 55.0742 46.9062 57.043 45.1719C59.0352 43.4375 60.0312 41.1172 60.0312 38.2109C60.0312 35.0469 59.082 32.6211 57.1836 30.9336C55.3086 29.2461 52.5898 28.3906 49.0273 28.3672H38.6914V47.7734ZM115.684 50.0586C115.684 55.0742 114.84 59.457 113.152 63.207C111.465 66.9336 109.074 69.7812 105.98 71.75C102.887 73.7188 99.2773 74.7031 95.1523 74.7031C91.1211 74.7031 87.5469 73.7188 84.4297 71.75C81.3125 69.7578 78.8867 66.9336 77.1523 63.2773C75.4414 59.5977 74.5625 55.3438 74.5156 50.5156V46.8242C74.5156 41.9023 75.3711 37.5547 77.082 33.7812C78.793 30.0078 81.207 27.125 84.3242 25.1328C87.4648 23.1172 91.0508 22.1094 95.082 22.1094C99.1836 22.1094 102.793 23.1055 105.91 25.0977C109.051 27.0664 111.465 29.9375 113.152 33.7109C114.84 37.4609 115.684 41.832 115.684 46.8242V50.0586ZM108.969 46.7539C108.969 40.6836 107.75 36.0312 105.312 32.7969C102.875 29.5391 99.4648 27.9102 95.082 27.9102C90.8164 27.9102 87.4531 29.5391 84.9922 32.7969C82.5547 36.0312 81.3008 40.5312 81.2305 46.2969V50.0586C81.2305 55.9414 82.4609 60.5703 84.9219 63.9453C87.4062 67.2969 90.8164 68.9727 95.1523 68.9727C99.5117 68.9727 102.887 67.3906 105.277 64.2266C107.668 61.0391 108.898 56.4805 108.969 50.5508V46.7539Z" fill="#FB0000"/>
</svg>
